<?xml version="1.0" standalone="no"?>
<!DOCTYPE svg PUBLIC "-//W3C//DTD SVG 20010904//EN"
 "http://www.w3.org/TR/2001/REC-SVG-20010904/DTD/svg10.dtd">
<svg version="1.0" xmlns="http://www.w3.org/2000/svg"
 width="275.000000pt" height="275.000000pt" viewBox="0 0 275.000000 275.000000"
 preserveAspectRatio="xMidYMid meet">
<metadata>
Created by potrace 1.11, written by Peter Selinger 2001-2013
</metadata>
<g transform="translate(0.000000,275.000000) scale(0.100000,-0.100000)"
fill="#000000" stroke="none">
<path d="M475 2448 c-4 -13 -25 -481 -25 -563 l0 -45 64 0 c79 0 96 6 96 34 0
33 35 156 59 211 53 119 116 146 354 153 l168 4 -3 -833 c-2 -663 -6 -840 -16
-866 -17 -40 -62 -59 -182 -75 l-90 -12 0 -68 0 -68 490 0 490 0 0 69 0 69
-72 7 c-40 4 -98 15 -128 24 -47 14 -58 22 -75 56 -19 39 -20 63 -23 869 l-3
828 173 -4 c189 -6 239 -17 292 -66 37 -35 77 -124 106 -234 l23 -88 75 0 74
0 -7 298 c-4 163 -9 300 -12 305 -2 4 -414 7 -914 7 -719 0 -910 -3 -914 -12z"/>
</g>
</svg>
